HIERARCHY
ROOT Hips
{
	OFFSET 0.00000 0.00000 0.00000
	CHANNELS 6 Xposition Yposition Zposition Zrotation Yrotation Xrotation 
	JOINT LHipJoint
	{
		OFFSET 0 0 0
		CHANNELS 3 Zrotation Yrotation Xrotation
		JOINT LeftUpLeg
		{
			OFFSET 1.37590 -1.78394 0.89329
			CHANNELS 3 Zrotation Yrotation Xrotation
			JOINT LeftLeg
			{
				OFFSET 2.47928 -6.81178 0.00000
				CHANNELS 3 Zrotation Yrotation Xrotation
				JOINT LeftFoot
				{
					OFFSET 2.63345 -7.23535 0.00000
					CHANNELS 3 Zrotation Yrotation Xrotation
					JOINT LeftToeBase
					{
						OFFSET 0.23938 -0.65768 2.27012
						CHANNELS 3 Zrotation Yrotation Xrotation
						End Site
						{
							OFFSET 0.00000 -0.00000 1.18363
						}
					}
				}
			}
		}
	}
	JOINT RHipJoint
	{
		OFFSET 0 0 0
		CHANNELS 3 Zrotation Yrotation Xrotation
		JOINT RightUpLeg
		{
			OFFSET -1.33617 -1.78394 0.89329
			CHANNELS 3 Zrotation Yrotation Xrotation
			JOINT RightLeg
			{
				OFFSET -2.56922 -7.05888 0.00000
				CHANNELS 3 Zrotation Yrotation Xrotation
				JOINT RightFoot
				{
					OFFSET -2.56568 -7.04915 0.00000
					CHANNELS 3 Zrotation Yrotation Xrotation
					JOINT RightToeBase
					{
						OFFSET -0.27533 -0.75646 2.18105
						CHANNELS 3 Zrotation Yrotation Xrotation
						End Site
						{
							OFFSET -0.00000 -0.00000 1.15233
						}
					}
				}
			}
		}
	}
	JOINT LowerBack
	{
		OFFSET 0 0 0
		CHANNELS 3 Zrotation Yrotation Xrotation
		JOINT Spine
		{
			OFFSET 0.06190 2.15152 -0.00935
			CHANNELS 3 Zrotation Yrotation Xrotation
			JOINT Spine1
			{
				OFFSET 0.06334 2.15332 0.00872
				CHANNELS 3 Zrotation Yrotation Xrotation
				JOINT Neck
				{
					OFFSET 0 0 0
					CHANNELS 3 Zrotation Yrotation Xrotation
					JOINT Neck1
					{
						OFFSET -0.04202 1.66908 0.23524
						CHANNELS 3 Zrotation Yrotation Xrotation
						JOINT Head
						{
							OFFSET 0.07510 1.69357 -0.24440
							CHANNELS 3 Zrotation Yrotation Xrotation
							End Site
							{
								OFFSET 0.02556 1.71719 -0.11000
							}
						}
					}
				}
				JOINT LeftShoulder
				{
					OFFSET 0 0 0
					CHANNELS 3 Zrotation Yrotation Xrotation
					JOINT LeftArm
					{
						OFFSET 3.67168 1.26306 -0.41342
						CHANNELS 3 Zrotation Yrotation Xrotation
						JOINT LeftForeArm
						{
							OFFSET 4.68510 -0.00000 -0.00000
							CHANNELS 3 Zrotation Yrotation Xrotation
							JOINT LeftHand
							{
								OFFSET 3.39626 -0.00000 -0.00000
								CHANNELS 3 Zrotation Yrotation Xrotation
								JOINT LeftFingerBase
								{
									OFFSET 0 0 0
									CHANNELS 3 Zrotation Yrotation Xrotation
									JOINT LeftHandIndex1
									{
										OFFSET 0.48608 -0.00000 -0.00000
										CHANNELS 3 Zrotation Yrotation Xrotation
										End Site
										{
											OFFSET 0.39189 -0.00000 -0.00000
										}
									}
								}
								JOINT LThumb
								{
									OFFSET 0 0 0
									CHANNELS 3 Zrotation Yrotation Xrotation
									End Site
									{
										OFFSET 0.39787 -0.00000 0.39787
									}
								}
							}
						}
					}
				}
				JOINT RightShoulder
				{
					OFFSET 0 0 0
					CHANNELS 3 Zrotation Yrotation Xrotation
					JOINT RightArm
					{
						OFFSET -3.04136 1.42992 -0.76390
						CHANNELS 3 Zrotation Yrotation Xrotation
						JOINT RightForeArm
						{
							OFFSET -5.55576 -0.00000 -0.00000
							CHANNELS 3 Zrotation Yrotation Xrotation
							JOINT RightHand
							{
								OFFSET -3.32774 -0.00000 -0.00000
								CHANNELS 3 Zrotation Yrotation Xrotation
								JOINT RightFingerBase
								{
									OFFSET 0 0 0
									CHANNELS 3 Zrotation Yrotation Xrotation
									JOINT RightHandIndex1
									{
										OFFSET -0.50763 -0.00000 -0.00000
										CHANNELS 3 Zrotation Yrotation Xrotation
										End Site
										{
											OFFSET -0.40926 -0.00000 -0.00000
										}
									}
								}
								JOINT RThumb
								{
									OFFSET 0 0 0
									CHANNELS 3 Zrotation Yrotation Xrotation
									End Site
									{
										OFFSET -0.41551 -0.00000 0.41551
									}
								}
							}
						}
					}
				}
			}
		}
	}
}
MOTION
Frames: 10
Frame Time: .0083333
1.5639 18.0814 5.6731 -436.6550 -80.8800 441.5190 0.0000 0.0000 0.0000 -3.3874 -5.1076 -26.4039 10.8701 17.8710 62.3591 0.0146 -0.2418 -2.2068 0.5121 -4.5868 -12.7336 0.0000 0.0000 0.0000 33.2617 5.7496 -6.8757 -0.5606 -4.7957 13.3269 0.1245 -9.5477 -11.1750 -0.8145 -5.7590 16.0867 6.4666 -0.3957 -1.2126 4.3570 -0.6576 -1.5726 0.8628 -0.4241 -0.9582 -8.8834 -5.6327 -9.4395 -2.0297 -6.3547 24.9759 0.0274 -4.2230 9.7221 0.0000 -0.0000 0.0000 -93.0080 -2.7060 27.9961 76.3987 -59.2893 -48.2491 -0.0000 0.0000 -38.2019 14.4233 46.1158 10.5016 -7.1250 0.0000 -0.0000 -42.6817 73.2510 -29.9561 0.0000 -0.0000 0.0000 81.6149 5.7038 1.8149 -63.6366 57.2036 -37.3829 0.0000 -0.0000 -24.3329 -23.2916 -43.1126 16.3946 7.1250 -0.0000 -0.0000 25.3344 -74.2571 -17.7849
1.4203 18.0856 5.6553 -437.8760 -80.8289 442.8160 0.0000 0.0000 0.0000 -3.1772 -5.1253 -27.3632 10.6280 17.7482 61.5675 0.0311 -0.2995 -3.2339 0.5282 -4.6571 -12.9332 0.0000 0.0000 0.0000 33.5177 5.6063 -6.1927 -0.5274 -4.6539 12.9240 0.1006 -9.3682 -11.3959 -0.8044 -5.7241 15.9859 6.5939 -0.2560 -1.2041 4.2848 -0.4697 -1.5815 0.7184 -0.3318 -0.9680 -8.9883 -5.7637 -9.2913 -1.8317 -6.5802 24.8595 0.0937 -4.3102 9.6717 -0.0000 -0.0000 0.0000 -92.6783 -2.3969 27.6192 77.0330 -59.3550 -48.7946 -0.0000 0.0000 -38.0328 14.3286 45.9910 10.4099 -7.1250 0.0000 -0.0000 -42.4539 73.1337 -29.6821 -0.0000 -0.0000 0.0000 81.8570 5.7082 2.2903 -63.7310 57.2249 -37.4623 0.0000 -0.0000 -24.3339 -23.3328 -43.1111 16.4249 7.1250 -0.0000 -0.0000 25.2774 -74.2710 -17.7510
1.2777 18.0875 5.6385 -439.1640 -80.7729 444.1920 0.0000 0.0000 0.0000 -2.9657 -5.1345 -28.2818 10.3425 17.5980 60.6270 0.0529 -0.3062 -4.2438 0.5635 -4.8078 -13.3612 0.0000 0.0000 0.0000 33.7687 5.4869 -5.5621 -0.5006 -4.5358 12.5892 0.0754 -9.1871 -11.6359 -0.7918 -5.6800 15.8586 6.7305 -0.1149 -1.1900 4.2119 -0.2793 -1.5947 0.5683 -0.2387 -0.9841 -9.0975 -5.8964 -9.1626 -1.6328 -6.8043 24.7336 0.1606 -4.3965 9.6227 0.0000 0.0000 0.0000 -92.3408 -2.0998 27.2558 77.6795 -59.4186 -49.3510 -0.0000 0.0000 -37.8506 14.3111 45.8500 10.3726 -7.1250 0.0000 -0.0000 -42.1127 73.0332 -29.3370 0.0000 0.0000 0.0000 82.0758 5.7326 2.7875 -63.7894 57.2379 -37.5114 0.0000 -0.0000 -24.3082 -23.3584 -43.0908 16.4382 7.1250 -0.0000 -0.0000 25.2000 -74.2636 -17.6911
1.1360 18.0872 5.6227 -440.5110 -80.7120 445.6450 0.0000 0.0000 0.0000 -2.7527 -5.1335 -29.1616 10.0151 17.4183 59.5389 0.0788 -0.2436 -5.2180 0.6140 -5.0149 -13.9510 0.0000 0.0000 0.0000 34.0142 5.3969 -4.9881 -0.4798 -4.4419 12.3234 0.0496 -9.0104 -11.8909 -0.7740 -5.6172 15.6778 6.8765 0.0284 -1.1736 4.1371 -0.0854 -1.6121 0.4111 -0.1442 -1.0044 -9.2033 -6.0304 -9.0512 -1.4403 -7.0258 24.5948 0.2247 -4.4816 9.5729 -0.0000 0.0000 0.0000 -91.9985 -1.8264 26.9028 78.3076 -59.4771 -49.8919 -0.0000 0.0000 -37.6463 14.3545 45.6944 10.3779 -7.1250 0.0000 -0.0000 -41.6780 72.9442 -28.9323 -0.0000 0.0000 0.0000 82.2759 5.7798 3.2962 -63.8046 57.2414 -37.5242 0.0000 -0.0000 -24.2355 -23.3653 -43.0416 16.4290 7.1250 -0.0000 -0.0000 25.0842 -74.2248 -17.5870
0.9953 18.0849 5.6078 -441.8760 -80.6512 447.1290 0.0000 0.0000 0.0000 -2.5468 -5.1285 -29.9875 9.6458 17.2058 58.2978 0.1063 -0.1011 -6.1209 0.6679 -5.2263 -14.5550 0.0000 0.0000 0.0000 34.2474 5.3326 -4.4711 -0.4654 -4.3757 12.1362 0.0225 -8.8371 -12.1677 -0.7521 -5.5392 15.4530 7.0212 0.1691 -1.1470 4.0632 0.1064 -1.6358 0.2554 -0.0513 -1.0356 -9.3063 -6.1608 -8.9632 -1.2629 -7.2351 24.4506 0.2837 -4.5623 9.5252 0.0000 0.0000 0.0000 -91.6610 -1.5662 26.5516 78.9143 -59.5305 -50.4147 -0.0000 0.0000 -37.4247 14.3742 45.4971 10.3582 -7.1250 0.0000 -0.0000 -41.1683 72.8171 -28.4414 0.0000 0.0000 0.0000 82.4533 5.8474 3.8170 -63.7732 57.2343 -37.4978 0.0000 -0.0000 -24.1018 -23.2931 -42.9628 16.3524 7.1250 -0.0000 -0.0000 25.0089 -74.1322 -17.4841
0.8557 18.0808 5.5940 -443.2160 -80.5961 448.6020 0.0000 0.0000 0.0000 -2.3563 -5.1279 -30.7522 9.2320 16.9547 56.8890 0.1316 0.1467 -6.9050 0.7073 -5.3750 -14.9814 0.0000 0.0000 0.0000 34.4618 5.2953 -4.0016 -0.4559 -4.3315 12.0113 -0.0050 -8.6768 -12.4617 -0.7274 -5.4493 15.1946 7.1611 0.3070 -1.1083 3.9859 0.2964 -1.6674 0.0988 0.0402 -1.0804 -9.3860 -6.2843 -8.8820 -1.1171 -7.4295 24.2874 0.3302 -4.6367 9.4698 -0.0000 0.0000 0.0000 -91.3264 -1.3053 26.2004 79.5116 -59.5802 -50.9296 -0.0000 0.0000 -37.1871 14.4243 45.3073 10.3619 -7.1250 0.0000 -0.0000 -40.6538 72.7048 -27.9623 -0.0000 0.0000 0.0000 82.6125 5.9356 4.3312 -63.6833 57.2141 -37.4222 0.0000 -0.0000 -23.8838 -23.2371 -42.8613 16.2814 7.1250 -0.0000 -0.0000 24.8658 -74.0264 -17.3259
0.7169 18.0749 5.5812 -444.5360 -80.5534 450.0660 0.0000 0.0000 0.0000 -2.1890 -5.1367 -31.4443 8.7762 16.6615 55.3128 0.1541 0.4763 -7.6033 0.7355 -5.4791 -15.2801 0.0000 0.0000 0.0000 34.6478 5.2758 -3.5857 -0.4517 -4.3118 11.9556 -0.0337 -8.5193 -12.7717 -0.6995 -5.3460 14.8981 7.2852 0.4404 -1.0719 3.9070 0.4805 -1.6968 -0.0508 0.1290 -1.1207 -9.4727 -6.3978 -8.8122 -0.9697 -7.6056 24.1027 0.3804 -4.7023 9.4093 0.0000 -0.0000 0.0000 -91.0036 -1.0722 25.8409 80.0691 -59.6240 -51.4105 -0.0000 0.0000 -36.9414 14.4756 45.1259 10.3676 -7.1250 0.0000 -0.0000 -40.1644 72.5974 -27.5089 0.0000 -0.0000 0.0000 82.7483 6.0633 4.8428 -63.5407 57.1819 -37.3023 0.0000 -0.0000 -23.6090 -23.1227 -42.7196 16.1555 7.1250 -0.0000 -0.0000 24.7172 -73.8652 -17.1356
0.5787 18.0676 5.5694 -445.8200 -80.5256 451.5070 0.0000 0.0000 0.0000 -2.0474 -5.1648 -32.0544 8.2807 16.3219 53.5676 0.1731 0.8749 -8.2275 0.7556 -5.5517 -15.4891 0.0000 0.0000 0.0000 34.8027 5.2693 -3.2149 -0.4517 -4.3118 11.9557 -0.0634 -8.3678 -13.0967 -0.6695 -5.2327 14.5733 7.3936 0.5679 -1.0379 3.8231 0.6568 -1.7276 -0.1970 0.2141 -1.1604 -9.5444 -6.5024 -8.7600 -0.8461 -7.7631 23.9092 0.4218 -4.7601 9.3470 0.0000 -0.0000 0.0000 -90.6913 -0.8418 25.4716 80.6122 -59.6644 -51.8791 -0.0000 0.0000 -36.7005 14.4743 44.9240 10.3310 -7.1250 0.0000 -0.0000 -39.6867 72.4556 -27.0389 0.0000 -0.0000 0.0000 82.8711 6.2143 5.3557 -63.3562 57.1399 -37.1473 0.0000 -0.0000 -23.3070 -23.0130 -42.5640 16.0294 7.1250 -0.0000 -0.0000 24.5384 -73.6938 -16.9192
0.4402 18.0587 5.5586 -447.1130 -80.5123 452.9660 0.0000 0.0000 0.0000 -1.9285 -5.2110 -32.5742 7.7496 15.9319 51.6556 0.1878 1.3247 -8.7824 0.7691 -5.6000 -15.6281 0.0000 0.0000 0.0000 34.9267 5.2719 -2.8814 -0.4553 -4.3287 12.0032 -0.0947 -8.2127 -13.4330 -0.6382 -5.1112 14.2260 7.4855 0.6904 -1.0142 3.7352 0.8257 -1.7606 -0.3384 0.2957 -1.1959 -9.6111 -6.5976 -8.7037 -0.7381 -7.9043 23.7009 0.4596 -4.8114 9.2776 0.0000 -0.0000 0.0000 -90.3980 -0.6226 25.0865 81.1098 -59.6992 -52.3087 -0.0000 0.0000 -36.4574 14.4336 44.7307 10.2671 -7.1250 0.0000 -0.0000 -39.2778 72.3046 -26.6152 0.0000 -0.0000 0.0000 82.9820 6.3800 5.8832 -63.1340 57.0888 -36.9608 0.0000 -0.0000 -22.9967 -22.9556 -42.4124 15.9434 7.1250 -0.0000 -0.0000 24.3046 -73.5444 -16.6766
0.3010 18.0485 5.5488 -448.3980 -80.5140 454.4270 0.0000 0.0000 0.0000 -1.8321 -5.2879 -32.9927 7.1865 15.4870 49.5763 0.1985 1.8062 -9.2803 0.7844 -5.6543 -15.7845 0.0000 0.0000 0.0000 35.0188 5.2731 -2.5721 -0.4611 -4.3558 12.0798 -0.1271 -8.0596 -13.7778 -0.6045 -4.9769 13.8426 7.5583 0.8067 -1.0035 3.6446 0.9851 -1.7947 -0.4719 0.3730 -1.2252 -9.6736 -6.6849 -8.6469 -0.6474 -8.0309 23.4848 0.4925 -4.8573 9.2043 0.0000 -0.0000 0.0000 -90.1327 -0.4116 24.6906 81.5709 -59.7298 -52.7068 -0.0000 0.0000 -36.2307 14.3441 44.5258 10.1660 -7.1250 0.0000 -0.0000 -38.9011 72.1272 -26.1966 0.0000 -0.0000 0.0000 83.0769 6.5390 6.4444 -62.8969 57.0337 -36.7618 0.0000 -0.0000 -22.7268 -22.9607 -42.2663 15.9048 7.1250 -0.0000 -0.0000 24.0056 -73.4217 -16.4030
